<?xml version="1.0" encoding="UTF-8"?><svg id="a" xmlns="http://www.w3.org/2000/svg" viewBox="0 0 1024 1024"><path d="M1017.83,1012.22c-5.49,1.16-741.15,1.01-748.86-.29-.09-85.51-.21-171.15-.25-256.8-.04-85.38,0-170.76,0-256.15,.53-.14,1.06-.29,1.58-.43,2.54,2.67,5.12,5.3,7.63,8,20.3,21.82,40.6,43.65,60.88,65.49,6.71,7.23,13.53,14.38,20,21.82,8.26,9.51,19.16,13.55,31.05,15.59,23.37,4,45.43-1.28,66.96-9.88,3.65-1.46,7.36-2.94,10.72-4.94,5.12-3.03,10.45-3.91,16.35-3.9,120.88,.12,241.76,.1,362.63,.1,29.93,0,54.31-17.84,63.17-46.16,12.04-38.5-15-79.42-55.15-83.41-3.14-.31-6.3-.49-9.45-.49-87.5-.02-175,0-262.5,0-2.14,0-4.27,0-6.81,0-.28-3.42-.22-6.36-.79-9.17-4.2-20.86-12.53-39.89-26.63-55.95-8.45-9.62-17.84-18.41-26.75-27.63-8.78-9.09-17.49-18.24-26.22-27.38-.66-.69-1.24-1.46-2.32-2.75,1.84-.3,3.07-.61,4.31-.68,1.77-.1,3.55-.03,5.33-.03,114.95,0,229.91,.03,344.86,0,37.38,0,66.7-29.78,65.48-67.02-1.09-33.06-25.72-58.82-57.81-62.52-3.32-.38-6.69-.51-10.04-.51-104.29-.02-208.57,0-312.86-.01-1.92,0-3.83-.16-7.19-.32,5.4-4.89,9.82-8.91,14.25-12.92,5.41-4.89,11.03-9.58,16.2-14.72,5.85-5.82,10.15-12.74,10.74-21.21,.72-10.41-2-20.75-12.37-26.12-5.05-2.61-10.24-5.14-15.62-6.88-43.09-13.93-86.24-27.68-129.37-41.46-21.38-6.83-42.77-13.6-64.15-20.42-2.53-.81-5.04-1.72-7.34-3.33H1017.4c1.18,4.18,1.57,944.72,.42,952.47Zm-370.83-177.59c66.34,0,132.68,.04,199.02-.08,5.27,0,10.64-.68,15.8-1.82,34.94-7.67,55.32-41.48,49.83-73.68-2.65-15.53-9.8-28.6-21.79-38.89-12.66-10.87-27.52-15.92-44.07-15.93-131.7-.05-263.39-.04-395.09,.02-4.5,0-9.05,.39-13.51,1.07-34.09,5.22-58.07,35.52-54.87,70.15,3.06,33.08,29.97,58.9,65.05,59.06,66.54,.31,133.08,.09,199.62,.09Z"/><path d="M361.61,281.15c5.86,6.11,11.69,12.22,17.55,18.3,27.55,28.56,55.11,57.11,82.66,85.67,15.08,15.63,29.91,31.5,45.29,46.83,10.66,10.63,13.05,22.78,9.42,36.85-3.48,13.47-10.33,25.16-18.98,35.81-17.52,21.58-39.04,37.78-65.23,47.48-7.62,2.82-15.51,4.52-23.63,5.04-6.15,.39-11.07-1.26-15.65-6.21-44.49-48.16-89.25-96.07-133.96-144.03-4.44-4.76-9.04-9.37-14.01-14.5-2.38,1.97-4.58,3.52-6.46,5.4-23.17,23.19-46.31,46.42-69.42,69.66-11.28,11.34-22.5,22.75-33.75,34.12-1.11,1.12-2.19,2.29-3.39,3.31-4.83,4.16-10.85,3.06-13.85-2.61-.82-1.54-1.24-3.32-1.66-5.04-29.22-118.98-58.41-237.96-87.63-356.94C19.66,102.53,10.33,64.8,1.05,27.06,0,22.81-1.26,18.43,2.72,14.92c3.67-3.23,7.63-1.96,11.71-.65,59.36,18.99,118.74,37.91,178.11,56.87,54.98,17.56,109.95,35.16,164.93,52.73,38.07,12.17,76.16,24.32,114.23,36.48,1.13,.36,2.26,.71,3.36,1.14,8.74,3.41,10.02,10.6,2.92,16.81-29.57,25.82-59.2,51.57-88.75,77.42-8.9,7.78-17.6,15.79-26.38,23.71-.41,.37-.67,.91-1.24,1.72Z"/></svg>